<svg width="191" height="107" viewBox="0 0 191 107" fill="none" xmlns="http://www.w3.org/2000/svg">
<path d="M0 85.2225C4.01466 89.8307 8.96249 93.8296 15 96.5C38.1603 106.744 61.3206 107.069 83.774 96.0624C85.6255 94.9354 87.18 93.8418 88.5827 92.855C91.0978 91.0857 93.1248 89.6598 95.5 89C95.6226 89.0766 95.7484 89.155 95.8776 89.2351C116.182 78.1319 125.705 85.2878 132.254 90.2087C132.859 90.6637 133.439 91.0995 134 91.5C135.368 92.4773 137.214 94.0467 139.466 95.9619C142.969 98.9406 147.456 102.755 152.659 106.48C171.281 106.125 184.356 101.119 191 91.241V0H1.16146C0.778702 1.19817 0.391187 2.41226 0 3.63881V85.2225Z" fill="#B94661"/>
</svg>
